<?xml version="1.0" encoding="UTF-8" standalone="no"?>
<svg width="26px" height="30px" viewBox="0 0 26 30" version="1.1" xmlns="http://www.w3.org/2000/svg" xmlns:xlink="http://www.w3.org/1999/xlink">
    <!-- Generator: Sketch 3.8.3 (29802) - http://www.bohemiancoding.com/sketch -->
    <title>Organization icon</title>
    <desc>Created with Sketch.</desc>
    <defs></defs>
    <g id="Help-Pages" stroke="none" stroke-width="1" fill="none" fill-rule="evenodd">
        <g id="Help-Page-(Main)---Desktop" transform="translate(-1007.000000, -403.000000)" fill="#AAAAAA">
            <g id="Help-Topics-(Categories)" transform="translate(-2.000000, 295.000000)">
                <g id="Top-Row" transform="translate(232.000000, 87.000000)">
                    <g id="Administration" transform="translate(640.000000, 0.000000)">
                        <path d="M145.821429,30.28125 C146.842857,31.48125 148.31,32.25 150,32.25 C151.69,32.25 153.157143,31.48125 154.178571,30.28125 C154.81,31.4625 156.035714,32.25 157.428571,32.25 C159.49,32.25 161.142857,30.58125 161.142857,28.5 C161.142857,26.41875 159.49,24.75 157.428571,24.75 C156.667143,24.75 155.998571,24.99375 155.422857,25.36875 C154.847143,22.875 152.637143,21 150,21 C147.362857,21 145.152857,22.875 144.577143,25.36875 C144.001429,24.99375 143.332857,24.75 142.571429,24.75 C140.51,24.75 138.857143,26.41875 138.857143,28.5 C138.857143,30.58125 140.51,32.25 142.571429,32.25 C143.964286,32.25 145.19,31.4625 145.821429,30.28125 L145.821429,30.28125 Z M155.478571,27.43125 C155.85,26.71875 156.574286,26.23125 157.428571,26.23125 C158.654286,26.23125 159.657143,27.2625 159.657143,28.48125 C159.657143,29.7 158.635714,30.73125 157.428571,30.73125 C156.221429,30.73125 155.255714,29.7375 155.218571,28.5375 C155.33,28.18125 155.422857,27.80625 155.478571,27.43125 L155.478571,27.43125 Z M150,22.8375 C152.061429,22.8375 153.751429,24.54375 153.751429,26.625 C153.751429,28.70625 152.061429,30.4125 150,30.4125 C147.938571,30.4125 146.248571,28.70625 146.248571,26.625 C146.248571,24.54375 147.938571,22.8375 150,22.8375 L150,22.8375 Z M142.571429,30.75 C141.345714,30.75 140.342857,29.71875 140.342857,28.5 C140.342857,27.28125 141.364286,26.25 142.571429,26.25 C143.407143,26.25 144.131429,26.75625 144.521429,27.45 C144.577143,27.825 144.67,28.21875 144.781429,28.55625 C144.744286,29.75625 143.797143,30.75 142.571429,30.75 L142.571429,30.75 Z M161.142857,32.25 L138.857143,32.25 C137.835714,32.25 137,33.09375 137,34.125 L137,39.75 C137,40.78125 137.835714,41.625 138.857143,41.625 L138.857143,45.375 C138.857143,46.40625 139.692857,47.25 140.714286,47.25 L142.571429,47.25 C143.592857,47.25 144.428571,46.40625 144.428571,45.375 L144.428571,43.5 L146.285714,43.5 L146.285714,49.125 C146.285714,50.15625 147.121429,51 148.142857,51 L151.857143,51 C152.878571,51 153.714286,50.15625 153.714286,49.125 L153.714286,43.5 L155.571429,43.5 L155.571429,45.375 C155.571429,46.40625 156.407143,47.25 157.428571,47.25 L159.285714,47.25 C160.307143,47.25 161.142857,46.40625 161.142857,45.375 L161.142857,41.625 C162.164286,41.625 163,40.78125 163,39.75 L163,34.125 C163,33.09375 162.164286,32.25 161.142857,32.25 L161.142857,32.25 Z M142.571429,45.375 L140.714286,45.375 L140.714286,39.75 L138.857143,39.75 L138.857143,34.125 L142.571429,34.125 L142.571429,45.375 L142.571429,45.375 Z M155.571429,41.625 L153.714286,41.625 L153.714286,37.875 L151.857143,37.875 L151.857143,49.125 L148.142857,49.125 L148.142857,37.875 L146.285714,37.875 L146.285714,41.625 L144.428571,41.625 L144.428571,34.125 L155.571429,34.125 L155.571429,41.625 L155.571429,41.625 Z M161.142857,39.75 L159.285714,39.75 L159.285714,45.375 L157.428571,45.375 L157.428571,34.125 L161.142857,34.125 L161.142857,39.75 L161.142857,39.75 Z" id="Organization-icon"></path>
                    </g>
                </g>
            </g>
        </g>
    </g>
</svg>