<?xml version="1.0" encoding="UTF-8" standalone="no"?>
<svg width="30px" height="35px" viewBox="0 0 30 35" version="1.1" xmlns="http://www.w3.org/2000/svg" xmlns:xlink="http://www.w3.org/1999/xlink">
    <!-- Generator: Sketch 3.8.3 (29802) - http://www.bohemiancoding.com/sketch -->
    <title>Beaker icon</title>
    <desc>Created with Sketch.</desc>
    <defs></defs>
    <g id="Help-Pages" stroke="none" stroke-width="1" fill="none" fill-rule="evenodd">
        <g id="Help-Page-(Main)---Desktop" transform="translate(-1005.000000, -569.000000)" fill="#AAAAAA">
            <g id="Help-Topics-(Categories)" transform="translate(-2.000000, 295.000000)">
                <g id="Bottom-Row" transform="translate(232.000000, 257.000000)">
                    <g id="Services-&amp;-Integrations" transform="translate(640.000000, 0.000000)">
                        <path d="M164.793654,48.408818 L157.517314,32.0693438 L157.517314,23.4582902 L159.670077,23.4582902 L159.670077,21.3055268 L140.295207,21.3055268 L140.295207,23.4582902 L142.44797,23.4582902 L142.44797,32.0693438 L135.193157,48.408818 C134.547328,49.8296419 135.602183,51.4442144 137.152172,51.4442144 L162.856167,51.4442144 C164.406157,51.4442144 165.439483,49.8296419 164.815182,48.408818 L164.793654,48.408818 Z M141.909779,38.527634 L144.600734,32.0693438 L144.600734,23.4582902 L155.364551,23.4582902 L155.364551,32.0693438 L158.055505,38.527634 L141.909779,38.527634 L141.909779,38.527634 Z M151.059024,34.2221072 L153.211787,34.2221072 L153.211787,36.3748706 L151.059024,36.3748706 L151.059024,34.2221072 L151.059024,34.2221072 Z M148.90626,32.0693438 L146.753497,32.0693438 L146.753497,29.9165804 L148.90626,29.9165804 L148.90626,32.0693438 L148.90626,32.0693438 Z M148.90626,25.6110536 L151.059024,25.6110536 L151.059024,27.763817 L148.90626,27.763817 L148.90626,25.6110536 L148.90626,25.6110536 Z M148.90626,19.1527634 L146.753497,19.1527634 L146.753497,17 L148.90626,17 L148.90626,19.1527634 L148.90626,19.1527634 Z" id="Beaker-icon"></path>
                    </g>
                </g>
            </g>
        </g>
    </g>
</svg>