<?xml version="1.0" encoding="UTF-8" standalone="no"?>
<svg width="24px" height="24px" viewBox="0 0 24 24" version="1.1" xmlns="http://www.w3.org/2000/svg" xmlns:xlink="http://www.w3.org/1999/xlink">
    <!-- Generator: Sketch 3.8.3 (29802) - http://www.bohemiancoding.com/sketch -->
    <title>Issue icon</title>
    <desc>Created with Sketch.</desc>
    <defs></defs>
    <g id="Help-Pages" stroke="none" stroke-width="1" fill="none" fill-rule="evenodd">
        <g id="Help-Page-(Main)---Desktop" transform="translate(-231.000000, -1266.000000)" fill="#000000">
            <g id="Common-Issues" transform="translate(231.000000, 1266.000000)">
                <path d="M12,2.22857143 C17.3828571,2.22857143 21.7714286,6.61714286 21.7714286,12 C21.7714286,17.3828571 17.3828571,21.7714286 12,21.7714286 C6.61714286,21.7714286 2.22857143,17.3828571 2.22857143,12 C2.22857143,6.61714286 6.61714286,2.22857143 12,2.22857143 L12,2.22857143 Z M12,0 C5.38285714,3.80647894e-16 0,5.38285714 0,12 C0,18.6171429 5.38285714,24 12,24 C18.6171429,24 24,18.6171429 24,12 C24,5.38285714 18.6171429,3.80647894e-16 12,3.80647894e-16 L12,0 Z M13.7142857,5.14285714 L10.2857143,5.14285714 L10.2857143,13.7142857 L13.7142857,13.7142857 L13.7142857,5.14285714 L13.7142857,5.14285714 Z M13.7142857,15.4285714 L10.2857143,15.4285714 L10.2857143,18.8571429 L13.7142857,18.8571429 L13.7142857,15.4285714 L13.7142857,15.4285714 Z" id="Issue-icon"></path>
            </g>
        </g>
    </g>
</svg>