<?xml version="1.0" encoding="UTF-8" standalone="no"?>
<svg width="30px" height="27px" viewBox="0 0 30 27" version="1.1" xmlns="http://www.w3.org/2000/svg" xmlns:xlink="http://www.w3.org/1999/xlink">
    <!-- Generator: Sketch 3.8.3 (29802) - http://www.bohemiancoding.com/sketch -->
    <title>Shape</title>
    <desc>Created with Sketch.</desc>
    <defs></defs>
    <g id="Help-Pages" stroke="none" stroke-width="1" fill="none" fill-rule="evenodd">
        <g id="Help-Page-(Main)---Desktop" transform="translate(-365.000000, -404.000000)" fill="#AAAAAA">
            <g id="Help-Topics-(Categories)" transform="translate(-2.000000, 295.000000)">
                <g id="Top-Row" transform="translate(232.000000, 87.000000)">
                    <g id="Getting-Started">
                        <path d="M163.91182,38.8855535 L149.24015,38.8855535 C148.133208,38.8855535 148.133208,38.1163227 148.133208,37.0093809 C148.133208,35.902439 148.133208,35.1332083 149.24015,35.1332083 L163.893058,35.1332083 C165,35.1332083 165,35.902439 165,37.0093809 C165,38.1163227 165,38.8855535 163.893058,38.8855535 L163.91182,38.8855535 Z M152.992495,29.5046904 C151.885553,29.5046904 151.885553,28.7354597 151.885553,27.6285178 C151.885553,26.521576 151.885553,25.7523452 152.992495,25.7523452 L163.893058,25.7523452 C165,25.7523452 165,26.521576 165,27.6285178 C165,28.7354597 165,29.5046904 163.893058,29.5046904 L152.992495,29.5046904 L152.992495,29.5046904 Z M135,29.3358349 L137.645403,26.8968105 L140.628518,29.879925 L148.302064,22 L150.947467,24.6454034 L140.628518,34.9643527 L135,29.3358349 L135,29.3358349 Z M149.24015,44.5140713 L163.893058,44.5140713 C165,44.5140713 165,45.2833021 165,46.3902439 C165,47.4971857 165,48.2664165 163.893058,48.2664165 L149.24015,48.2664165 C148.133208,48.2664165 148.133208,47.4971857 148.133208,46.3902439 C148.133208,45.2833021 148.133208,44.5140713 149.24015,44.5140713 L149.24015,44.5140713 Z" id="Shape"></path>
                    </g>
                </g>
            </g>
        </g>
    </g>
</svg>