<?xml version="1.0" encoding="UTF-8" standalone="no"?>
<svg width="65px" height="19px" viewBox="0 0 65 19" version="1.1" xmlns="http://www.w3.org/2000/svg" xmlns:xlink="http://www.w3.org/1999/xlink">
    <!-- Generator: Sketch 3.8.3 (29802) - http://www.bohemiancoding.com/sketch -->
    <title>Github Logo (vector)</title>
    <desc>Created with Sketch.</desc>
    <defs></defs>
    <g id="Help-Pages" stroke="none" stroke-width="1" fill="none" fill-rule="evenodd">
        <g id="Help-Page-(Main)---Desktop" transform="translate(-231.000000, -13.000000)" fill="#FFFFFF">
            <g id="Header" transform="translate(-1.000000, 0.000000)">
                <g id="Masthead">
                    <path d="M258.969324,28.0827523 L258.940215,28.0827523 C258.953314,28.0827523 258.962047,28.0958512 258.975146,28.0987621 C258.976601,28.0987621 258.982423,28.0973067 258.983878,28.0973067 L258.969324,28.0827523 Z M258.975146,28.0987621 C258.83979,28.1002176 258.499216,28.1700787 258.139722,28.1700787 C257.004478,28.1700787 256.611509,27.6461199 256.611509,26.9620626 L256.611509,22.4065319 L258.925661,22.4065319 C259.05665,22.4065319 259.158531,22.2900967 259.158531,22.1299981 L259.158531,19.6557482 C259.158531,19.5247585 259.042096,19.4083233 258.925661,19.4083233 L256.611509,19.4083233 L256.611509,16.3373425 C256.611509,16.2209072 256.538737,16.1481352 256.407747,16.1481352 L253.263995,16.1481352 C253.133005,16.1481352 253.060233,16.2209072 253.060233,16.3373425 L253.060233,19.4956497 C253.060233,19.4956497 251.473802,19.8886188 251.371921,19.9031732 C251.255486,19.9322821 251.182714,20.0341629 251.182714,20.1505982 L251.182714,22.1299981 C251.182714,22.2900967 251.299149,22.4065319 251.430139,22.4065319 L253.045678,22.4065319 L253.045678,27.1803788 C253.045678,30.7316551 255.519928,31.0955154 257.20824,31.0955154 C257.979624,31.0955154 258.911106,30.8480904 259.05665,30.7753183 C259.143977,30.7462095 259.18764,30.6443286 259.18764,30.5424478 L259.18764,28.3592861 C259.18764,28.2151974 259.08867,28.1191383 258.975146,28.0987621 L258.975146,28.0987621 Z M293.463278,24.8953362 C293.463278,22.2609878 292.400806,21.911682 291.280116,22.0281173 C290.406852,22.0863349 289.70824,22.5229672 289.70824,22.5229672 L289.70824,27.6461199 C289.70824,27.6461199 290.421406,28.1409699 291.483878,28.1700787 C292.982983,28.213742 293.463278,27.6752288 293.463278,24.8953362 L293.463278,24.8953362 Z M297,24.6624657 C297,29.6546287 295.38446,31.080961 292.560905,31.080961 C290.173981,31.080961 288.893193,29.8729448 288.893193,29.8729448 C288.893193,29.8729448 288.834975,30.5424478 288.762203,30.6297742 C288.71854,30.7171007 288.645768,30.7462095 288.558442,30.7462095 L286.404389,30.7462095 C286.258845,30.7462095 286.127855,30.6297742 286.127855,30.4987845 L286.156964,14.3288338 C286.156964,14.1978441 286.273399,14.0814088 286.404389,14.0814088 L289.504478,14.0814088 C289.635468,14.0814088 289.751903,14.1978441 289.751903,14.3288338 L289.751903,19.8158468 C289.751903,19.8158468 290.945365,19.044463 292.691894,19.044463 L292.67734,19.0153542 C294.423869,19.0153542 297,19.6703027 297,24.6624657 L297,24.6624657 Z M284.308554,19.4083233 L284.293999,19.4083233 L281.252127,19.4083233 C281.092029,19.4083233 281.004702,19.5247585 281.004702,19.6848571 L281.004702,27.6024567 C281.004702,27.6024567 280.20421,28.1700787 279.112629,28.1700787 C278.021048,28.1700787 277.700851,27.6752288 277.700851,26.5836479 L277.700851,19.6703027 C277.700851,19.539313 277.584416,19.4228777 277.453426,19.4228777 L274.338782,19.4228777 C274.207792,19.4228777 274.091357,19.539313 274.091357,19.6703027 L274.091357,27.1076067 C274.091357,30.3095772 275.881549,31.1100698 278.341245,31.1100698 C280.364308,31.1100698 282.008957,29.9893801 282.008957,29.9893801 C282.008957,29.9893801 282.081729,30.5570022 282.125392,30.6443286 C282.154501,30.7171007 282.256382,30.7753183 282.358262,30.7753183 L284.308554,30.7753183 C284.468652,30.7753183 284.555979,30.658883 284.555979,30.5278933 L284.585087,19.6557482 C284.585087,19.5247585 284.468652,19.4083233 284.308554,19.4083233 L284.308554,19.4083233 Z M249.814599,19.3937688 L246.71451,19.3937688 C246.58352,19.3937688 246.467085,19.5247585 246.467085,19.6848571 L246.467085,30.3677948 C246.467085,30.658883 246.656292,30.7607639 246.903717,30.7607639 L249.698164,30.7607639 C249.989252,30.7607639 250.062024,30.6297742 250.062024,30.3677948 L250.062024,19.6557482 L250.062024,19.6411938 C250.062024,19.5102041 249.945589,19.3937688 249.814599,19.3937688 L249.814599,19.3937688 Z M248.286386,14.4743779 C247.165696,14.4743779 246.277877,15.362197 246.277877,16.4828866 C246.277877,17.6035763 247.165696,18.4913954 248.286386,18.4913954 C249.377967,18.4913954 250.265786,17.6035763 250.265786,16.4828866 C250.265786,15.362197 249.377967,14.4743779 248.286386,14.4743779 L248.286386,14.4743779 Z M272.28661,14.1105176 L269.215629,14.1105176 C269.084639,14.1105176 268.968204,14.2269529 268.968204,14.3579426 L268.968204,20.3106967 L264.150694,20.3106967 L264.150694,14.3579426 C264.150694,14.2269529 264.034259,14.1105176 263.903269,14.1105176 L260.80318,14.1105176 C260.67219,14.1105176 260.555755,14.2269529 260.555755,14.3579426 L260.555755,30.5278933 C260.555755,30.658883 260.686744,30.7753183 260.80318,30.7753183 L263.903269,30.7753183 C264.034259,30.7753183 264.150694,30.658883 264.150694,30.5278933 L264.150694,23.6145481 L268.968204,23.6145481 L268.939095,30.5278933 C268.939095,30.658883 269.055531,30.7753183 269.18652,30.7753183 L272.28661,30.7753183 C272.4176,30.7753183 272.534035,30.658883 272.534035,30.5278933 L272.534035,14.3579426 C272.534035,14.2269529 272.4176,14.1105176 272.28661,14.1105176 L272.28661,14.1105176 Z M244.822436,21.2712879 L244.822436,29.6255199 C244.822436,29.6837375 244.807882,29.7856184 244.73511,29.8147272 C244.73511,29.8147272 242.915808,31.1100698 239.9176,31.1100698 C236.293551,31.1100698 232,29.9748257 232,22.4938584 C232,15.0128911 235.755038,13.4701235 239.42275,13.4846779 C242.595611,13.4846779 243.876399,14.1978441 244.080161,14.3288338 C244.138379,14.4016058 244.167488,14.4598235 244.167488,14.5325955 L243.556202,17.1232807 C243.556202,17.2542704 243.425213,17.4143689 243.265114,17.3707057 C242.741155,17.2106072 241.955217,16.8904101 240.106807,16.8904101 C237.967309,16.8904101 235.667712,17.5016954 235.667712,22.3192055 C235.667712,27.1367156 237.850873,27.7043376 239.42275,27.7043376 C240.761755,27.7043376 241.242051,27.5442391 241.242051,27.5442391 L241.242051,24.1967245 L239.102553,24.1967245 C238.942454,24.1967245 238.826019,24.0802892 238.826019,23.9492995 L238.826019,21.2712879 C238.826019,21.1402982 238.942454,21.0238629 239.102553,21.0238629 L244.545902,21.0238629 C244.706001,21.0238629 244.822436,21.1402982 244.822436,21.2712879 L244.822436,21.2712879 Z" id="Github-Logo-(vector)"></path>
                </g>
            </g>
        </g>
    </g>
</svg>