<?xml version="1.0" encoding="UTF-8" standalone="no"?>
<svg width="42px" height="27px" viewBox="0 0 42 27" version="1.1" xmlns="http://www.w3.org/2000/svg" xmlns:xlink="http://www.w3.org/1999/xlink">
    <!-- Generator: Sketch 3.8.3 (29802) - http://www.bohemiancoding.com/sketch -->
    <title>Mortarboard icon</title>
    <desc>Created with Sketch.</desc>
    <defs></defs>
    <g id="Help-Pages" stroke="none" stroke-width="1" fill="none" fill-rule="evenodd">
        <g id="Help-Page-(Main)---Desktop" transform="translate(-679.000000, -404.000000)" fill="#AAAAAA">
            <g id="Help-Topics-(Categories)" transform="translate(-2.000000, 295.000000)">
                <g id="Top-Row" transform="translate(232.000000, 87.000000)">
                    <g id="Learning-Git" transform="translate(320.000000, 0.000000)">
                        <path d="M149.552491,38.8605453 L139.470385,35.727985 C128.940771,14.6687559 139.470385,39.6765904 139.470385,42.308994 C139.470385,44.9413977 144.208712,46.2575995 150,46.2575995 C155.791288,46.2575995 160.529615,44.9413977 160.529615,42.308994 L160.529615,35.727985 L150.447509,38.8605453 C150.157944,38.9395174 149.842056,38.9395174 149.499843,38.8605453 L149.552491,38.8605453 L149.552491,38.8605453 Z M150.289564,22.0394861 C150.13162,21.986838 149.921028,21.986838 149.763084,22.0394861 L129.65152,28.3046067 C128.782827,28.5941711 128.782827,29.7787527 129.65152,30.0683171 L134.205578,31.5161391 L134.205578,36.1754936 C133.415857,36.6230022 132.889376,37.4916954 132.889376,38.4393607 C132.889376,38.9395174 133.020997,39.387026 133.257913,39.7555625 C133.047321,40.124099 132.889376,40.5716076 132.889376,41.0717643 L132.889376,47.8633657 C132.889376,49.3111877 138.154184,49.3111877 138.154184,47.8633657 L138.154184,41.0717643 C138.154184,40.5716076 138.022563,40.124099 137.785647,39.7555625 C137.996239,39.387026 138.154184,38.9395174 138.154184,38.4393607 C138.154184,37.4390473 137.627703,36.6230022 136.837982,36.1754936 L136.837982,32.3585083 L149.710436,36.3860859 C149.86838,36.4387339 150.078972,36.4387339 150.236916,36.3860859 L170.34848,30.1209652 C171.217173,29.8314008 171.217173,28.6468192 170.34848,28.3572548 L150.26324,22.0658101 L150.289564,22.0394861 Z M150.052648,30.4631777 C148.604826,30.4631777 147.420244,29.8840489 147.420244,29.1469759 C147.420244,28.4099029 148.604826,27.8307741 150.052648,27.8307741 C151.50047,27.8307741 152.685052,28.4099029 152.685052,29.1469759 C152.685052,29.8840489 151.50047,30.4631777 150.052648,30.4631777 L150.052648,30.4631777 Z" id="Mortarboard-icon"></path>
                    </g>
                </g>
            </g>
        </g>
    </g>
</svg>