<?xml version="1.0" encoding="UTF-8" standalone="no"?>
<svg width="27px" height="27px" viewBox="0 0 27 27" version="1.1" xmlns="http://www.w3.org/2000/svg" xmlns:xlink="http://www.w3.org/1999/xlink">
    <!-- Generator: Sketch 3.8.3 (29802) - http://www.bohemiancoding.com/sketch -->
    <title>Github icon</title>
    <desc>Created with Sketch.</desc>
    <defs></defs>
    <g id="Help-Pages" stroke="none" stroke-width="1" fill="none" fill-rule="evenodd">
        <g id="Help-Page-(Main)---Desktop" transform="translate(-367.000000, -574.000000)" fill="#AAAAAA">
            <g id="Help-Topics-(Categories)" transform="translate(-2.000000, 295.000000)">
                <g id="Bottom-Row" transform="translate(232.000000, 257.000000)">
                    <g id="Using-Github.com">
                        <path d="M150.5,22 C143.04125,22 137,28.04125 137,35.5 C137,41.47375 140.864375,46.519375 146.230625,48.308125 C146.905625,48.42625 147.15875,48.02125 147.15875,47.666875 C147.15875,47.34625 147.141875,46.283125 147.141875,45.1525 C143.75,45.776875 142.8725,44.325625 142.6025,43.56625 C142.450625,43.178125 141.7925,41.98 141.21875,41.659375 C140.74625,41.40625 140.07125,40.781875 141.201875,40.765 C142.265,40.748125 143.024375,41.74375 143.2775,42.14875 C144.4925,44.190625 146.433125,43.616875 147.209375,43.2625 C147.3275,42.385 147.681875,41.794375 148.07,41.456875 C145.06625,41.119375 141.9275,39.955 141.9275,34.79125 C141.9275,33.323125 142.450625,32.108125 143.31125,31.163125 C143.17625,30.825625 142.70375,29.441875 143.44625,27.585625 C143.44625,27.585625 144.576875,27.23125 147.15875,28.969375 C148.23875,28.665625 149.38625,28.51375 150.53375,28.51375 C151.68125,28.51375 152.82875,28.665625 153.90875,28.969375 C156.490625,27.214375 157.62125,27.585625 157.62125,27.585625 C158.36375,29.441875 157.89125,30.825625 157.75625,31.163125 C158.616875,32.108125 159.14,33.30625 159.14,34.79125 C159.14,39.971875 155.984375,41.119375 152.980625,41.456875 C153.47,41.87875 153.891875,42.68875 153.891875,43.954375 C153.891875,45.76 153.875,47.21125 153.875,47.666875 C153.875,48.02125 154.128125,48.443125 154.803125,48.308125 C160.135625,46.519375 164,41.456875 164,35.5 C164,28.04125 157.95875,22 150.5,22 L150.5,22 Z" id="Github-icon"></path>
                    </g>
                </g>
            </g>
        </g>
    </g>
</svg>