<?xml version="1.0" encoding="UTF-8" standalone="no"?>
<svg width="22px" height="28px" viewBox="0 0 22 28" version="1.1" xmlns="http://www.w3.org/2000/svg" xmlns:xlink="http://www.w3.org/1999/xlink">
    <!-- Generator: Sketch 3.8.3 (29802) - http://www.bohemiancoding.com/sketch -->
    <title>git pull request icon</title>
    <desc>Created with Sketch.</desc>
    <defs></defs>
    <g id="Help-Pages" stroke="none" stroke-width="1" fill="none" fill-rule="evenodd">
        <g id="Help-Page-(Main)---Desktop" transform="translate(-689.000000, -574.000000)" fill="#AAAAAA">
            <g id="Help-Topics-(Categories)" transform="translate(-2.000000, 295.000000)">
                <g id="Bottom-Row" transform="translate(232.000000, 257.000000)">
                    <g id="Collaborating-with-Github" transform="translate(320.000000, 0.000000)">
                        <path d="M159.166667,42.68 L159.166667,31.1666667 C159.111667,29.7366667 158.543333,28.4716667 157.443333,27.39 C156.343333,26.3083333 155.096667,25.7216667 153.666667,25.6666667 L151.833333,25.6666667 L151.833333,22 L146.333333,27.5 L151.833333,33 L151.833333,29.3333333 L153.666667,29.3333333 C154.161667,29.37 154.546667,29.535 154.931667,29.9016667 C155.316667,30.2683333 155.481667,30.6716667 155.5,31.1666667 L155.5,42.68 C154.418333,43.3033333 153.666667,44.4766667 153.666667,45.8333333 C153.666667,47.8683333 155.298333,49.5 157.333333,49.5 C159.368333,49.5 161,47.8683333 161,45.8333333 C161,44.495 160.248333,43.3033333 159.166667,42.68 L159.166667,42.68 Z M157.333333,48.0333333 C156.123333,48.0333333 155.133333,47.025 155.133333,45.8333333 C155.133333,44.6416667 156.141667,43.6333333 157.333333,43.6333333 C158.525,43.6333333 159.533333,44.6416667 159.533333,45.8333333 C159.533333,47.025 158.525,48.0333333 157.333333,48.0333333 L157.333333,48.0333333 Z M146.333333,27.5 C146.333333,25.465 144.701667,23.8333333 142.666667,23.8333333 C140.631667,23.8333333 139,25.465 139,27.5 C139,28.8383333 139.751667,30.03 140.833333,30.6533333 L140.833333,42.68 C139.751667,43.3033333 139,44.4766667 139,45.8333333 C139,47.8683333 140.631667,49.5 142.666667,49.5 C144.701667,49.5 146.333333,47.8683333 146.333333,45.8333333 C146.333333,44.495 145.581667,43.3033333 144.5,42.68 L144.5,30.6533333 C145.581667,30.03 146.333333,28.8566667 146.333333,27.5 L146.333333,27.5 Z M144.866667,45.8333333 C144.866667,47.0433333 143.858333,48.0333333 142.666667,48.0333333 C141.475,48.0333333 140.466667,47.025 140.466667,45.8333333 C140.466667,44.6416667 141.475,43.6333333 142.666667,43.6333333 C143.858333,43.6333333 144.866667,44.6416667 144.866667,45.8333333 L144.866667,45.8333333 Z M142.666667,29.7 C141.456667,29.7 140.466667,28.6916667 140.466667,27.5 C140.466667,26.3083333 141.475,25.3 142.666667,25.3 C143.858333,25.3 144.866667,26.3083333 144.866667,27.5 C144.866667,28.6916667 143.858333,29.7 142.666667,29.7 L142.666667,29.7 Z" id="git-pull-request-icon"></path>
                    </g>
                </g>
            </g>
        </g>
    </g>
</svg>