<?xml version="1.0" encoding="UTF-8" standalone="no"?>
<svg width="24px" height="24px" viewBox="0 0 24 24" version="1.1" xmlns="http://www.w3.org/2000/svg" xmlns:xlink="http://www.w3.org/1999/xlink">
    <!-- Generator: Sketch 3.8.3 (29802) - http://www.bohemiancoding.com/sketch -->
    <title>Question mark icon</title>
    <desc>Created with Sketch.</desc>
    <defs></defs>
    <g id="Help-Pages" stroke="none" stroke-width="1" fill="none" fill-rule="evenodd">
        <g id="Help-Page-(Main)---Desktop" transform="translate(-230.000000, -330.000000)" fill="#333333">
            <g id="Help-Topics-(Categories)" transform="translate(-2.000000, 295.000000)">
                <path d="M242.285714,50.4285714 L245.714286,50.4285714 L245.714286,53.8571429 L242.285714,53.8571429 L242.285714,50.4285714 L242.285714,50.4285714 Z M249.142857,44.4285714 C249.142857,48.0971429 245.714286,48.7142857 245.714286,48.7142857 L242.285714,48.7142857 C242.285714,47.7714286 243.057143,47 244,47 L244.857143,47 C245.337143,47 245.714286,46.6228571 245.714286,46.1428571 L245.714286,44.4285714 C245.714286,43.9485714 245.337143,43.5714286 244.857143,43.5714286 L243.142857,43.5714286 C242.662857,43.5714286 242.285714,43.9485714 242.285714,44.4285714 L242.285714,45.2857143 L238.857143,45.2857143 C238.857143,42.7142857 241.428571,40.1428571 244,40.1428571 C246.571429,40.1428571 249.142857,41.8571429 249.142857,44.4285714 L249.142857,44.4285714 Z M244,37.2285714 C249.382857,37.2285714 253.771429,41.6171429 253.771429,47 C253.771429,52.3828571 249.382857,56.7714286 244,56.7714286 C238.617143,56.7714286 234.228571,52.3828571 234.228571,47 C234.228571,41.6171429 238.617143,37.2285714 244,37.2285714 L244,37.2285714 Z M244,35 C237.382857,35 232,40.3828571 232,47 C232,53.6171429 237.382857,59 244,59 C250.617143,59 256,53.6171429 256,47 C256,40.3828571 250.617143,35 244,35 L244,35 Z" id="Question-mark-icon"></path>
            </g>
        </g>
    </g>
</svg>