<?xml version="1.0" encoding="UTF-8" standalone="no"?>
<svg width="26px" height="26px" viewBox="0 0 26 26" version="1.1" xmlns="http://www.w3.org/2000/svg" xmlns:xlink="http://www.w3.org/1999/xlink">
    <!-- Generator: Sketch 3.8.3 (29802) - http://www.bohemiancoding.com/sketch -->
    <title>Rocket icon</title>
    <desc>Created with Sketch.</desc>
    <defs></defs>
    <g id="Help-Pages" stroke="none" stroke-width="1" fill="none" fill-rule="evenodd">
        <g id="Help-Page-(Main)---Desktop" transform="translate(-228.000000, -858.000000)" fill="#333333">
            <g id="Quick-Start" style="mix-blend-mode: multiply;" transform="translate(228.000000, 858.000000)">
                <path d="M19.77625,6.22375 C19.3375,5.785 19.0125,5.33 18.7525,4.79375 C18.4925,4.29 18.31375,3.72125 18.2,3.13625 C17.2575,3.6725 16.315,4.27375 15.38875,4.9725 C14.44625,5.6875 13.53625,6.5 12.6425,7.3775 C11.505,8.515 10.48125,10.31875 9.75,11.35875 L4.875,11.35875 L0,16.25 L4.875,16.25 L8.125,13 C7.5725,14.25125 6.4675,17.8425 6.5,17.875 L8.125,19.5 C8.1575,19.5325 11.74875,18.46 13,17.875 L9.75,21.125 L9.75,26 L14.625,21.125 L14.625,16.25 C15.665,15.51875 17.46875,14.47875 18.60625,13.3575 C19.5,12.46375 20.3125,11.52125 20.995,10.595 C21.71,9.6525 22.31125,8.71 22.8475,7.8 C22.2625,7.67 21.71,7.49125 21.17375,7.2475 C20.67,6.9875 20.215,6.6625 19.77625,6.22375 M26,0 C26,0 25.85375,0.6175 25.5125,1.7225 C25.1875,2.86 24.61875,4.29 23.79,6.045 C22.6525,5.915 21.72625,5.50875 21.0925,4.875 C20.45875,4.24125 20.06875,3.3475 19.955,2.21 C21.71,1.365 23.12375,0.78 24.245,0.455 C25.3825,0.13 26,0 26,0" id="Rocket-icon"></path>
            </g>
        </g>
    </g>
</svg>